<?xml version="1.0" standalone="no"?>
<!DOCTYPE svg PUBLIC "-//W3C//DTD SVG 20010904//EN"
 "http://www.w3.org/TR/2001/REC-SVG-20010904/DTD/svg10.dtd">
<svg version="1.0" xmlns="http://www.w3.org/2000/svg"
 width="500.000000pt" height="500.000000pt" viewBox="0 0 500.000000 500.000000"
 preserveAspectRatio="xMidYMid meet">

<g transform="translate(0.000000,500.000000) scale(0.100000,-0.100000)"
fill="#000000" stroke="none">
<path d="M2352 4159 c-516 -60 -944 -409 -1107 -902 -84 -256 -87 -547 -8
-802 29 -92 112 -275 125 -275 5 0 127 75 271 166 144 92 271 171 282 176 18
8 67 -20 298 -166 153 -97 282 -176 287 -176 5 0 134 79 286 176 168 106 283
173 292 169 8 -3 136 -82 283 -175 148 -94 273 -170 277 -170 13 0 97 184 125
275 138 445 23 949 -295 1290 -286 306 -705 462 -1116 414z m-312 -959 l0
-420 -110 0 -110 0 0 420 0 420 110 0 110 0 0 -420z m582 409 c61 -13 169 -61
188 -84 11 -13 6 -27 -35 -85 -26 -39 -51 -72 -55 -75 -4 -3 -38 9 -74 26 -74
35 -169 49 -204 30 -15 -8 -22 -21 -22 -41 0 -37 23 -49 141 -78 145 -36 229
-84 264 -151 39 -76 23 -193 -36 -264 -107 -130 -390 -135 -576 -12 -29 19
-53 39 -53 43 0 7 37 55 93 121 25 30 29 32 45 18 34 -30 121 -66 181 -76 81
-13 135 2 139 40 5 39 -22 55 -148 89 -147 40 -206 72 -245 135 -59 95 -33
235 57 308 75 61 210 83 340 56z m558 -409 l0 -420 -110 0 -110 0 0 420 0 420
110 0 110 0 0 -420z"/>
<path d="M1711 2141 c-118 -75 -216 -141 -218 -147 -6 -19 172 -180 275 -248
226 -150 457 -220 732 -220 355 0 671 128 925 376 78 76 88 89 75 102 -8 7
-109 72 -223 144 l-208 131 -285 -180 -284 -181 -286 181 c-157 100 -286 181
-287 180 -1 0 -98 -62 -216 -138z"/>
<path d="M1272 1254 c-67 -34 -95 -104 -68 -168 18 -44 60 -70 147 -91 79 -20
101 -37 76 -63 -23 -22 -87 -18 -144 9 l-46 22 -29 -32 c-16 -18 -27 -38 -25
-44 8 -25 97 -60 167 -65 130 -9 200 40 200 138 0 76 -33 105 -153 136 -71 17
-91 32 -81 58 9 22 89 21 133 -3 l35 -19 28 39 c15 21 28 41 28 44 0 2 -19 14
-42 26 -58 30 -179 37 -226 13z"/>
<path d="M1943 1245 c-148 -74 -162 -293 -25 -389 37 -26 54 -31 115 -34 63
-3 79 0 127 25 l55 28 3 93 3 92 -91 0 c-83 0 -90 -1 -90 -20 0 -18 7 -20 70
-20 l70 0 0 -60 0 -61 -42 -19 c-132 -60 -268 22 -268 161 1 146 135 231 263
165 38 -19 49 -21 58 -10 15 18 3 33 -45 55 -60 27 -140 25 -203 -6z"/>
<path d="M2865 1252 c-169 -79 -177 -324 -14 -406 145 -72 307 13 325 170 11
94 -38 193 -112 229 -56 27 -149 30 -199 7z m152 -33 c139 -52 154 -267 23
-336 -95 -50 -196 -16 -241 82 -69 149 70 310 218 254z"/>
<path d="M980 1045 l0 -215 60 0 60 0 0 215 0 215 -60 0 -60 0 0 -215z"/>
<path d="M1630 1045 l0 -215 60 0 60 0 0 215 0 215 -60 0 -60 0 0 -215z"/>
<path d="M2300 1045 c0 -208 1 -215 20 -215 18 0 20 7 20 85 l0 85 65 0 65 0
62 -85 c53 -71 67 -84 92 -85 l28 0 -28 38 c-15 20 -43 57 -61 81 -18 24 -33
47 -33 50 0 3 19 14 40 24 95 44 94 173 0 222 -21 11 -63 15 -150 15 l-120 0
0 -215z m250 162 c38 -19 54 -60 40 -102 -17 -51 -51 -65 -160 -65 l-90 0 0
90 0 90 93 0 c54 0 102 -5 117 -13z"/>
<path d="M3250 1133 c1 -190 14 -235 83 -287 43 -32 140 -34 196 -4 74 39 85
74 89 261 l4 157 -25 0 -26 0 -3 -165 -3 -165 -32 -31 c-42 -43 -120 -51 -171
-19 -52 32 -62 69 -62 235 l0 145 -25 0 -25 0 0 -127z"/>
<path d="M3690 1045 l0 -215 25 0 c24 0 25 2 25 74 l0 74 88 4 c64 3 98 9 123
24 65 37 88 128 49 192 -30 49 -72 62 -200 62 l-110 0 0 -215z m249 149 c26
-21 31 -33 31 -67 0 -23 -7 -50 -14 -59 -22 -29 -81 -48 -151 -48 l-65 0 0
100 0 100 84 0 c76 0 87 -3 115 -26z"/>
</g>
</svg>
